<?xml version="1.0" encoding="iso-8859-1"?><!-- Generator: Adobe Illustrator 19.0.0, SVG Export Plug-In . SVG Version: 6.00 Build 0)  -->
<svg style="enable-background:new 0 0 504.131 504.131;" id="Layer_1" version="1.1"
    viewBox="0 0 504.131 504.131" x="0px" xmlns="http://www.w3.org/2000/svg" y="0px"
    xml:space="preserve">
<path style="fill:#FF3817;" d="M504.123,478.759c0,13.997-11.351,25.364-25.372,25.364H25.372C11.359,504.123,0,492.765,0,478.759
	V25.372C0,11.359,11.351,0,25.372,0h453.388c14.013,0,25.372,11.359,25.372,25.372v453.388H504.123z" />
    <path style="fill:#C63205;" d="M504.123,25.372v453.396c0,13.997-11.351,25.364-25.372,25.364H25.372
	C11.359,504.131,0,492.772,0,478.767" />
    <path style="fill:#074066;" d="M0,110.836v50.916c171.811,34.997,307.413,170.606,342.37,342.37h50.932
	C357.022,304.703,199.428,147.133,0,110.836z" />
    <path style="fill:#00233F;" d="M220.893,280.095c60.574,59.975,103.849,137.389,121.478,224.028h50.932
	c-18.117-99.572-66.465-188.692-135.176-257.505L220.893,280.095z" />
    <path style="fill:#074066;" d="M0,245.382v38.022c106.401,30.35,190.385,114.326,220.735,220.719h37.998
	C226.635,377.399,126.708,277.473,0,245.382z" />
    <g>
	<path style="fill:#00233F;" d="M160.075,334.801l-27.388,24.623c41.141,39.022,72.066,88.702,88.048,144.699h37.998
		C242.137,438.587,207.281,380.321,160.075,334.801z" />
        <path style="fill:#00233F;" d="M0,365.867v26.908c49.554,21.921,89.435,61.802,111.356,111.348h26.908
		C113.648,440.911,63.244,390.498,0,365.867z" />
</g>
    <path style="fill:#074066;" d="M74.429,411.813l-18.723,16.849c23.576,20.756,42.772,46.371,55.643,75.461h26.908
	C124.4,468.512,102.353,436.98,74.429,411.813z" />
    <g>
</g>
    <g>
</g>
    <g>
</g>
    <g>
</g>
    <g>
</g>
    <g>
</g>
    <g>
</g>
    <g>
</g>
    <g>
</g>
    <g>
</g>
    <g>
</g>
    <g>
</g>
    <g>
</g>
    <g>
</g>
    <g>
</g>
</svg>
