<svg enable-background="new 0 0 497 497" height="512" id="Capa_1" viewBox="0 0 497 497" width="512"
    xmlns="http://www.w3.org/2000/svg">
    <path
        d="m0 366.225v-305.659c0-5.642 4.574-10.216 10.216-10.216h476.569c5.642 0 10.216 4.574 10.216 10.216v305.66l-240.501 21.274z"
        fill="#6165a8" />
    <path d="m464 50.35v318.749l33-2.874v-305.659c0-5.642-4.574-10.216-10.216-10.216z"
        fill="#4e5291" />
    <path
        d="m311.22 200.187-117.44-67.804c-6.236-3.6-14.03.9-14.03 8.1v135.607c0 7.2 7.795 11.701 14.03 8.1l117.439-67.804c6.236-3.598 6.236-12.599.001-16.199z"
        fill="#d63be7" />
    <path
        d="m311.22 200.187-117.44-67.804c-6.236-3.6-14.03.9-14.03 8.1v135.607c0 7.2 7.795 11.701 14.03 8.1l117.439-67.804c6.236-3.598 6.236-12.599.001-16.199z"
        fill="#d63be7" />
    <path
        d="m486.73 446.65h-476.46c-5.672 0-10.27-4.598-10.27-10.27v-69.963h497v69.963c0 5.672-4.598 10.27-10.27 10.27z"
        fill="#fef5e4" />
    <path d="m464 366.417v80.234h22.73c5.672 0 10.27-4.598 10.27-10.27v-69.963h-33z"
        fill="#fee4c2" />
    <path
        d="m445.5 414.033h-394c-4.142 0-7.5-3.358-7.5-7.5s3.358-7.5 7.5-7.5h394c4.142 0 7.5 3.358 7.5 7.5s-3.358 7.5-7.5 7.5z"
        fill="#fee4c2" />
    <circle cx="91" cy="406.533" fill="#888dc4" r="14" />
</svg>